#!OML:ASF F:\VICON\USERDATA\INSTALL\rory3\rory3.ASF
:FULLY-SPECIFIED
:DEGREES
209
root 0.310236 18.0046 8.4803 -3.71074 1.5349 -2.159
lowerback 9.91487 -1.77988 -0.501423
upperback -0.399303 -2.26788 2.71351
thorax -5.85457 -1.05922 3.46321
lowerneck -17.1284 -2.60813 -2.06075
upperneck 21.8928 -2.82085 -1.05256
head 9.79262 -1.60794 -0.40167
rclavicle -2.03735e-014 1.74931e-014
rhumerus -37.5305 -27.0975 -70.532
rradius 20.536
rwrist 11.5558
rhand -17.5388 22.3113
rfingers 7.12502
rthumb 8.71538 -7.48874
lclavicle -2.03735e-014 1.74931e-014
lhumerus -25.7369 -3.18314 83.601
lradius 32.0522
lwrist 8.34709
lhand -32.0393 15.2835
lfingers 7.12502
lthumb -5.28664 45.1976
rfemur -20.1802 4.73457 26.6021
rtibia 29.5843
rfoot -5.72136 -2.86253
rtoes 9.14649
lfemur 7.16995 -1.84688 -19.5026
ltibia 45.5243
lfoot 14.7851 -21.1185
ltoes 3.77008
210
root 0.289564 18.0269 8.66599 -3.72078 1.53132 -2.64669
lowerback 10.0635 -1.78082 -0.0696801
upperback -0.466621 -2.20863 2.80775
thorax -6.02603 -1.03866 3.31924
lowerneck -17.3635 -2.56992 -1.9176
upperneck 22.0789 -2.78539 -1.11424
head 9.89901 -1.58728 -0.447802
rclavicle 3.31652e-014 -1.86858e-014
rhumerus -37.2761 -26.3997 -71.1239
rradius 20.8345
rwrist 10.8721
rhand -16.9534 24.0527
rfingers 7.12502
rthumb 9.28029 -5.72301
lclavicle 3.31652e-014 -1.86858e-014
lhumerus -26.1645 -2.93907 83.6187
lradius 31.9793
lwrist 8.32185
lhand -31.6601 18.0113
lfingers 7.12502
lthumb -4.92052 47.9341
rfemur -19.3979 4.86696 27.3281
rtibia 29.2201
rfoot -5.80518 -2.87468
rtoes 11.0008
lfemur 5.65456 -1.46114 -18.5935
ltibia 48.0821
lfoot 15.8019 -23.7512
ltoes 0.548339
211
root 0.273657 18.0489 8.8513 -3.69223 1.46075 -3.20965
lowerback 10.0019 -1.76706 0.46687
upperback -0.477589 -2.11724 2.96421
thorax -6.02179 -1.00794 3.16561
lowerneck -17.4742 -2.5992 -2.03365
upperneck 22.1147 -2.80714 -1.04516
head 9.93585 -1.59894 -0.409456
rclavicle 1.50642e-015 -2.22639e-014
rhumerus -36.8706 -25.7948 -71.5971
rradius 20.9959
rwrist 10.4663
rhand -16.1837 25.9208
rfingers 7.12502
rthumb 10.0229 -3.82057
lclavicle 1.50642e-015 -2.22639e-014
lhumerus -26.6231 -2.73199 83.7672
lradius 31.8072
lwrist 8.72003
lhand -32.2952 16.7143
lfingers 7.12502
lthumb -5.53378 46.622
rfemur -18.6252 4.88179 28.1206
rtibia 28.8898
rfoot -5.94224 -3.09864
rtoes 12.6827
lfemur 4.09022 -1.11025 -17.6976
ltibia 50.5952
lfoot 16.6293 -23.3209
ltoes 9.14375
212
root 0.265498 18.072 9.04611 -3.73796 1.38796 -3.45872
lowerback 9.99696 -1.7338 0.760668
upperback -0.50504 -2.03383 3.01654
thorax -6.06069 -0.974695 3.04346
lowerneck -17.2932 -2.61402 -2.12019
upperneck 21.9036 -2.82948 -0.961698
head 9.82979 -1.60596 -0.36389
rclavicle -2.68546e-014 1.23246e-014
rhumerus -36.5379 -24.6857 -72.2466
rradius 21.3065
rwrist 9.65362
rhand -16.1806 25.2849
rfingers 7.12502
rthumb 10.0259 -4.45625
lclavicle -2.68546e-014 1.23246e-014
lhumerus -27.2294 -2.34736 83.8834
lradius 31.7643
lwrist 8.84324
lhand -32.8569 14.7426
lfingers 7.12502
lthumb -6.07607 44.6355
rfemur -17.6735 4.65591 28.5434
rtibia 28.5658
rfoot -6.44731 -3.0091
rtoes 12.5575
lfemur 2.69152 -0.685721 -17.2199
ltibia 53.0157
lfoot 16.4716 -22.1765
ltoes 11.6922
213
root 0.252409 18.0958 9.2432 -3.84057 1.27543 -3.61963
lowerback 9.99929 -1.65206 0.893198
upperback -0.46108 -1.9105 3.01037
thorax -6.02569 -0.918743 2.94252
lowerneck -17.3549 -2.65695 -2.01485
upperneck 21.8704 -2.92603 -0.927755
head 9.82838 -1.63751 -0.383048
rclavicle -9.97961e-015 3.69739e-014
rhumerus -36.0762 -24.0877 -72.7875
rradius 21.3705
rwrist 9.19543
rhand -15.7559 25.9187
rfingers 7.12502
rthumb 10.4356 -3.80234
lclavicle -9.97961e-015 3.69739e-014
lhumerus -27.6715 -2.36435 83.9568
lradius 31.7886
lwrist 8.89634
lhand -33.5511 14.9689
lfingers 7.12502
lthumb -6.74623 44.8414
rfemur -16.681 4.60473 28.8687
rtibia 28.2931
rfoot -7.03448 -2.83836
rtoes 12.711
lfemur 1.43262 -0.103473 -16.7927
ltibia 55.3078
lfoot 15.3339 -20.6941
ltoes 6.53044
214
root 0.234114 18.1077 9.4209 -3.93366 1.08314 -4.13096
lowerback 9.86189 -1.56552 1.29065
upperback -0.243297 -1.75118 3.14328
thorax -5.73329 -0.853228 2.8226
lowerneck -17.5914 -2.74155 -1.89623
upperneck 21.7729 -3.03666 -1.06603
head 9.83377 -1.69422 -0.468416
rclavicle 3.906e-015 -1.07344e-014
rhumerus -35.2872 -23.9917 -73.2044
rradius 21.4289
rwrist 9.46933
rhand -15.7324 25.3836
rfingers 7.12502
rthumb 10.4583 -4.33624
lclavicle 3.906e-015 -1.07344e-014
lhumerus -27.495 -1.73786 83.7364
lradius 31.9027
lwrist 10.5908
lhand -30.9649 16.2624
lfingers 7.12502
lthumb -4.24922 46.1998
rfemur -15.837 4.80948 29.611
rtibia 28.1214
rfoot -7.22284 -2.83462
rtoes 11.7421
lfemur 0.106589 0.563368 -15.936
ltibia 57.5574
lfoot 13.6924 -18.9304
ltoes 0.140791
215
root 0.220788 18.1185 9.59527 -4.03717 0.780347 -4.51902
lowerback 9.83383 -1.42199 1.6859
upperback -0.161025 -1.51487 3.19269
thorax -5.64897 -0.747977 2.61405
lowerneck -17.2333 -2.78689 -1.93589
upperneck 21.4037 -3.11699 -0.989319
head 9.63872 -1.72491 -0.435711
rclavicle 1.27508e-014 5.96354e-015
rhumerus -34.8151 -23.4373 -73.7326
rradius 21.7162
rwrist 9.87165
rhand -16.3178 22.5973
rfingers 7.12502
rthumb 9.89355 -7.15019
lclavicle 1.27508e-014 5.96354e-015
lhumerus -27.6239 -1.43863 83.7082
lradius 31.6924
lwrist 10.9927
lhand -29.9025 18.0502
lfingers 7.12502
lthumb -3.22335 48.0056
rfemur -15.002 5.06034 30.2163
rtibia 28.0052
rfoot -7.56024 -2.63306
rtoes 10.0378
lfemur -1.15939 1.359 -15.2741
ltibia 59.6773
lfoot 11.8387 -16.5019
ltoes -3.69755
